<?xml version="1.0" encoding="UTF-8" standalone="no"?>
<!-- Created with Inkscape (http://www.inkscape.org/) -->

<svg
   xmlns:dc="http://purl.org/dc/elements/1.1/"
   xmlns:cc="http://creativecommons.org/ns#"
   xmlns:rdf="http://www.w3.org/1999/02/22-rdf-syntax-ns#"
   xmlns:svg="http://www.w3.org/2000/svg"
   xmlns="http://www.w3.org/2000/svg"
   xmlns:sodipodi="http://sodipodi.sourceforge.net/DTD/sodipodi-0.dtd"
   xmlns:inkscape="http://www.inkscape.org/namespaces/inkscape"
   id="svg2"
   version="1.1"
   inkscape:version="0.91 r13725"
   xml:space="preserve"
   width="453.54376"
   height="340.51126"
   viewBox="0 0 453.54376 340.51126"
   sodipodi:docname="background.svg"><metadata
     id="metadata8"><rdf:RDF><cc:Work
         rdf:about=""><dc:format>image/svg+xml</dc:format><dc:type
           rdf:resource="http://purl.org/dc/dcmitype/StillImage" /><dc:title></dc:title></cc:Work></rdf:RDF></metadata><defs
     id="defs6"><clipPath
       clipPathUnits="userSpaceOnUse"
       id="clipPath16"><path
         d="m 0,272.409 362.835,0 L 362.835,0 0,0 0,272.409 Z"
         id="path18"
         inkscape:connector-curvature="0" /></clipPath><clipPath
       clipPathUnits="userSpaceOnUse"
       id="clipPath24"><path
         d="m 223.31,148.428 126.965,0 0,-123.721 -126.965,0 0,123.721 z"
         id="path26"
         inkscape:connector-curvature="0" /></clipPath><clipPath
       clipPathUnits="userSpaceOnUse"
       id="clipPath40"><path
         d="m 321.387,125.021 119.557,0 0,-122.9043 -119.557,0 0,122.9043 z"
         id="path42"
         inkscape:connector-curvature="0" /></clipPath><clipPath
       clipPathUnits="userSpaceOnUse"
       id="clipPath56"><path
         d="m 234.633,111.404 92.346,0 0,-83.237 -92.346,0 0,83.237 z"
         id="path58"
         inkscape:connector-curvature="0" /></clipPath><clipPath
       clipPathUnits="userSpaceOnUse"
       id="clipPath72"><path
         d="m 197.423,64.9316 135.439,0 0,-127.2622 -135.439,0 0,127.2622 z"
         id="path74"
         inkscape:connector-curvature="0" /></clipPath><clipPath
       clipPathUnits="userSpaceOnUse"
       id="clipPath88"><path
         d="m 283.527,44.4092 122.424,0 0,-122.1494 -122.424,0 0,122.1494 z"
         id="path90"
         inkscape:connector-curvature="0" /></clipPath></defs><sodipodi:namedview
     pagecolor="#ffffff"
     bordercolor="#666666"
     borderopacity="1"
     objecttolerance="10"
     gridtolerance="10"
     guidetolerance="10"
     inkscape:pageopacity="0"
     inkscape:pageshadow="2"
     inkscape:window-width="2560"
     inkscape:window-height="1364"
     id="namedview4"
     showgrid="false"
     inkscape:zoom="5.2784322"
     inkscape:cx="226.77188"
     inkscape:cy="117.37879"
     inkscape:window-x="0"
     inkscape:window-y="24"
     inkscape:window-maximized="1"
     inkscape:current-layer="g10" /><g
     id="g10"
     inkscape:groupmode="layer"
     inkscape:label="background"
     transform="matrix(1.25,0,0,-1.25,0,340.51125)"><g
       id="g12"><g
         id="g14"
         clip-path="url(#clipPath16)"><g
           id="g20"><g
             id="g22" /><g
             id="g28"><g
               clip-path="url(#clipPath24)"
               id="g30"><g
                 transform="translate(324.0122,46.6006)"
                 id="g32"><path
                   d="M 0,0 C -0.313,-1.148 -0.933,-2.215 -1.878,-3.061 -2.811,-3.899 -3.935,-4.406 -5.095,-4.59 l -81.558,-17.183 -10e-4,0.007 c -2.248,-0.455 -4.456,0.332 -5.913,1.898 l -6.308,7.036 c -0.827,0.836 -1.433,1.912 -1.693,3.136 -0.262,1.241 -0.129,2.467 0.296,3.577 l 2.943,9 c 0.718,1.997 2.417,3.589 4.634,4.077 l -0.001,0.007 52.259,10.986 -55.76,62.204 c -1.514,1.727 -1.934,4.034 -1.309,6.079 l 2.936,8.985 c 0.311,1.128 0.943,2.185 1.876,3.027 0.944,0.846 2.07,1.352 3.239,1.539 l 9.273,1.95 0.001,-0.012 c 2.09,0.383 4.309,-0.288 5.844,-1.97 l 0.008,0.008 55.762,-62.206 16.627,50.798 c 0.739,2.174 2.526,3.689 4.611,4.171 l 9.248,1.952 c 1.135,0.296 2.366,0.276 3.561,-0.109 1.2,-0.398 2.2,-1.12 2.952,-2.039 l 6.326,-7.056 -0.01,-0.005 c 1.374,-1.621 1.902,-3.879 1.214,-6.047 L 25.969,79.218 0,0 Z"
                   style="fill:#9e125e;fill-opacity:1;fill-rule:nonzero;stroke:none"
                   id="path34"
                   inkscape:connector-curvature="0" /></g></g></g></g><g
           id="g36"><g
             id="g38" /><g
             id="g44"><g
               clip-path="url(#clipPath40)"
               id="g46"><g
                 transform="translate(321.9531,43.4268)"
                 id="g48"><path
                   d="m 0,0 c -0.483,0.952 -0.64,1.975 -0.535,2.968 l 3.79,69.947 c 0.126,1.906 1.227,3.52 2.792,4.369 l -0.004,0.008 7.106,3.602 c 0.866,0.485 1.873,0.749 2.926,0.693 1.058,-0.062 2.03,-0.424 2.826,-1 l 6.648,-4.346 c 0.749,-0.512 1.359,-1.205 1.769,-2.015 0.404,-0.795 0.613,-1.703 0.572,-2.661 l -2.452,-44.841 62.614,31.732 16.452,8.328 c 1.709,0.847 3.653,0.703 5.176,-0.237 l 0.003,0.012 6.663,-4.357 c 0.859,-0.496 1.587,-1.24 2.066,-2.184 0.479,-0.944 0.648,-1.971 0.554,-2.949 l -0.439,-7.927 c -0.137,-1.789 -1.166,-3.471 -2.879,-4.366 l -79.047,-40.06 37.574,-24.52 -0.004,-0.01 c 0.797,-0.53 1.406,-1.235 1.81,-2.032 0.402,-0.793 0.6,-1.676 0.577,-2.564 l -0.432,-7.943 c -0.005,-1.001 -0.277,-2.003 -0.859,-2.896 -0.579,-0.882 -1.379,-1.535 -2.279,-1.934 l -7.084,-3.589 c -1.617,-0.782 -3.588,-0.737 -5.208,0.305 L 2.062,-2.176 C 1.202,-1.68 0.475,-0.938 0,0"
                   style="fill:#a4a09f;fill-opacity:1;fill-rule:nonzero;stroke:none"
                   id="path50"
                   inkscape:connector-curvature="0" /></g></g></g></g><g
           id="g52"><g
             id="g54" /><g
             id="g60"><g
               clip-path="url(#clipPath56)"
               id="g62"><g
                 transform="translate(286.8862,28.3633)"
                 id="g64"><path
                   d="M 0,0 -0.001,0.002 C -0.877,-0.357 -1.83,-0.213 -2.542,0.307 l -3.106,2.349 c -0.402,0.276 -0.73,0.659 -0.932,1.138 -0.205,0.48 -0.246,0.985 -0.162,1.469 l 0.482,3.873 c 0.135,0.864 0.697,1.642 1.554,2.014 l -10e-4,0.003 22.478,9.487 -69.002,52.232 c -0.749,0.582 -1.099,1.482 -1.009,2.358 l 0.484,3.866 c 0.037,0.481 0.207,0.96 0.52,1.373 0.315,0.417 0.732,0.709 1.189,0.875 l 3.6,1.522 0,-0.006 c 0.816,0.32 1.765,0.221 2.518,-0.337 l 7.213,-5.454 61.793,-46.777 2.989,24.146 c 0.128,0.938 0.731,1.692 1.536,2.051 l 3.591,1.517 c 0.434,0.208 0.934,0.297 1.45,0.234 0.515,-0.067 0.978,-0.279 1.355,-0.592 l 3.112,-2.356 -0.003,-0.004 c 0.685,-0.549 1.075,-1.418 0.968,-2.352 L 35.544,16.557 C 35.507,16.068 35.34,15.587 35.023,15.17 34.711,14.758 34.297,14.465 33.842,14.3 L 0,0 Z"
                   style="fill:#494647;fill-opacity:1;fill-rule:nonzero;stroke:none"
                   id="path66"
                   inkscape:connector-curvature="0" /></g></g></g></g><g
           id="g68"><g
             id="g70" /><g
             id="g76"><g
               clip-path="url(#clipPath72)"
               id="g78"><g
                 transform="translate(327.1929,-23.0815)"
                 id="g80"><path
                   d="m 0,0 c -0.484,-0.405 -1.069,-0.69 -1.733,-0.805 -0.731,-0.126 -1.441,-0.027 -2.087,0.247 l -5.208,1.905 c -1.156,0.464 -2.054,1.484 -2.295,2.8 l -0.007,-0.006 -6.999,40.24 -99.096,-82.784 c -1.047,-0.852 -2.401,-1.049 -3.586,-0.643 l -5.209,1.905 c -0.645,0.208 -1.252,0.592 -1.728,1.161 -0.476,0.569 -0.746,1.235 -0.835,1.92 l -0.952,5.471 0.006,0.005 c -0.183,1.232 0.255,2.511 1.267,3.378 l 61.541,51.411 37.563,31.379 -38.375,14.062 c -1.257,0.479 -2.113,1.556 -2.35,2.787 l -0.949,5.452 c -0.156,0.673 -0.121,1.394 0.134,2.09 0.241,0.64 0.638,1.174 1.137,1.591 0.038,0.032 0.076,0.063 0.116,0.094 l 4.261,3.559 0.005,-0.006 c 0.974,0.769 2.309,1.026 3.568,0.584 l -0.005,0.006 54.821,-20.113 c 0.67,-0.209 1.276,-0.593 1.764,-1.164 0.47,-0.564 0.74,-1.229 0.822,-1.92 L 5.623,7.089 5.618,7.096 C 5.84,5.765 5.33,4.492 4.389,3.672 L 0.141,0.123 C 0.094,0.081 0.047,0.04 0,0"
                   style="fill:#6d696b;fill-opacity:1;fill-rule:nonzero;stroke:none"
                   id="path82"
                   inkscape:connector-curvature="0" /></g></g></g></g><g
           id="g84"><g
             id="g86" /><g
             id="g92"><g
               clip-path="url(#clipPath88)"
               id="g94"><g
                 transform="translate(290.4561,-34.98)"
                 id="g96"><path
                   d="m 0,0 c -0.062,0.113 -0.121,0.226 -0.178,0.341 l -5.857,10.604 0.014,0.009 c -1.245,2.414 -1.247,5.38 0.224,7.88 l 34.031,56.278 c 0.717,1.346 1.804,2.492 3.217,3.272 1.406,0.775 2.951,1.091 4.449,0.985 l 65.73,-1.255 0.004,-0.007 c 2.934,-0.081 5.456,-1.695 6.813,-4.068 l 5.841,-10.575 c 0.065,-0.106 0.127,-0.213 0.187,-0.322 0.666,-1.207 1.045,-2.605 1.018,-4.074 -0.029,-1.619 -0.545,-3.103 -1.397,-4.36 l -6.258,-10.363 c -1.465,-2.288 -4.039,-3.784 -6.945,-3.755 l 0.004,-0.007 -27.454,0.549 33.828,-61.36 c 1.387,-2.586 1.245,-5.584 -0.12,-7.948 l -6.239,-10.345 c -0.714,-1.316 -1.805,-2.455 -3.211,-3.229 -1.409,-0.787 -2.959,-1.095 -4.476,-0.99 l -12.104,0.238 -0.004,0.007 c -2.714,0.135 -5.284,1.608 -6.711,4.143 L 74.392,-38.36 40.564,23 26.331,-0.566 C 24.788,-3.059 22.125,-4.43 19.39,-4.432 L 7.313,-4.208 C 5.811,-4.25 4.285,-3.87 2.91,-3.046 1.642,-2.277 0.671,-1.215 0,0"
                   style="fill:#eb1b2a;fill-opacity:1;fill-rule:nonzero;stroke:none"
                   id="path98"
                   inkscape:connector-curvature="0" /></g></g></g></g></g></g></g></svg>