<?xml version="1.0" encoding="UTF-8" standalone="no"?>
<!-- Created with Inkscape (http://www.inkscape.org/) -->

<svg
   xmlns:dc="http://purl.org/dc/elements/1.1/"
   xmlns:cc="http://creativecommons.org/ns#"
   xmlns:rdf="http://www.w3.org/1999/02/22-rdf-syntax-ns#"
   xmlns:svg="http://www.w3.org/2000/svg"
   xmlns="http://www.w3.org/2000/svg"
   xmlns:sodipodi="http://sodipodi.sourceforge.net/DTD/sodipodi-0.dtd"
   xmlns:inkscape="http://www.inkscape.org/namespaces/inkscape"
   width="9.2656374mm"
   height="16.679333mm"
   viewBox="0 0 32.830999 59.099998"
   id="svg3416"
   version="1.1"
   inkscape:version="0.91 r13725"
   sodipodi:docname="tue_palme_dgrey.svg">
  <defs
     id="defs3418" />
  <sodipodi:namedview
     id="base"
     pagecolor="#ffffff"
     bordercolor="#666666"
     borderopacity="1.0"
     inkscape:pageopacity="0.0"
     inkscape:pageshadow="2"
     inkscape:zoom="5.6267447"
     inkscape:cx="6.5295696"
     inkscape:cy="48.272685"
     inkscape:document-units="px"
     inkscape:current-layer="layer1"
     showgrid="false"
     inkscape:snap-bbox="true"
     fit-margin-top="0"
     fit-margin-left="0"
     fit-margin-right="0"
     fit-margin-bottom="0"
     inkscape:window-width="2560"
     inkscape:window-height="1364"
     inkscape:window-x="0"
     inkscape:window-y="24"
     inkscape:window-maximized="1" />
  <metadata
     id="metadata3421">
    <rdf:RDF>
      <cc:Work
         rdf:about="">
        <dc:format>image/svg+xml</dc:format>
        <dc:type
           rdf:resource="http://purl.org/dc/dcmitype/StillImage" />
        <dc:title></dc:title>
      </cc:Work>
    </rdf:RDF>
  </metadata>
  <g
     inkscape:label="Layer 1"
     inkscape:groupmode="layer"
     id="layer1"
     transform="translate(-229.29879,-311.38363)">
    <path
       inkscape:connector-curvature="0"
       style="clip-rule:evenodd;fill:#444e57;fill-rule:evenodd;fill-opacity:1"
       d="m 241.62579,369.17363 c 0.547,-0.123 0.857,-0.265 1.308,-0.6 0.647,-0.48 0.959,-0.907 1.218,-1.67 0.091,0.906 -0.058,1.772 -0.874,2.215 -0.568,0.307 -1.072,0.238 -1.652,0.055 m -2.055,-6.483 c 1.341,-1.311 1.729,-2.884 1.153,-4.668 -0.354,-1.097 -0.819,-1.717 -1.771,-2.365 0.273,-0.301 0.439,-0.461 0.746,-0.728 0.259,-0.225 0.41,-0.345 0.69,-0.542 l 0.335,0.9 c 0.428,1.151 1.082,1.86 1.113,2.947 0.056,1.945 -1.155,3.581 -2.266,4.456 m 19.789,-25.727 c -2.092,3.557 -4.832,5.294 -6.18,5.27 0.247,-0.381 0.328,-0.903 0.305,-1.211 -1.206,0.023 -2.019,-0.567 -2.625,-1.603 -0.489,-0.832 -0.348,-2.451 -0.348,-2.451 -1.101,-0.154 -1.735,0.975 -1.735,2.018 l 0,10.386 c 0,0.782 0.086,1.302 0.367,1.852 1.129,2.202 3.647,3.552 5.753,3.273 -0.928,1.021 -1.864,1.732 -3.36,1.893 -0.849,0.09 -1.37,0.027 -2.172,-0.263 1.033,0.938 2.068,1.421 3.476,1.167 1.439,-0.258 2.259,-1.53 3.002,-1.736 0.453,-0.126 0.846,-0.053 1.37,0.048 -0.652,0.072 -1.124,0.431 -1.448,0.86 -0.268,0.356 -0.336,0.984 -0.355,1.362 0.472,0.113 0.993,0.142 1.563,-0.078 0.427,-0.163 0.661,-0.324 0.967,-0.666 0.646,0.424 1.07,1.515 1.07,1.515 -0.625,-0.264 -1.287,-0.287 -1.873,-0.088 -1.785,0.607 -2.51,1.759 -5.909,1.16 -1.491,-0.262 -1.966,-1.322 -3.172,-1.506 0.405,0.242 0.645,0.587 0.817,1.089 0.128,0.369 0.154,0.608 0.107,0.996 1.94,-0.475 3.137,0.638 4.431,0.722 1.725,0.112 1.938,-1.39 4.682,-1.359 0.856,0.01 2.065,0.609 2.44,1.553 -0.915,-0.433 -2.268,-0.307 -2.992,-0.105 -1.123,0.311 -1.794,0.685 -2.587,1.556 0.811,0.319 1.33,0.409 2.202,0.384 0.737,-0.021 1.166,-0.108 1.854,-0.374 -0.967,0.925 -1.898,1.438 -3.413,1.954 -1.017,0.346 -1.686,0.227 -2.726,0.005 0.307,-0.165 0.473,-0.465 0.473,-0.465 -1.542,-0.267 -1.679,-1.193 -2.926,-1.448 -0.331,-0.066 -0.521,-0.092 -0.858,-0.114 1.255,2.354 4.11,3.707 6.381,3.176 1.091,-0.255 2.524,-0.711 3.629,-1.854 -0.33,1.621 -0.938,2.472 -2.268,3.061 -1.778,0.787 -3.157,0.925 -4.98,0.238 0.81,0.715 1.737,1.014 2.973,1.235 0.811,0.146 1.292,0.164 2.111,0.078 -2.111,1.284 -5.568,0.598 -7.846,-1.093 -1.621,-1.205 -2.52,-2.41 -3.215,-4.389 0.252,2.153 0.727,4.495 2.878,5.85 1.015,0.639 1.986,1.062 2.924,0.944 -0.783,0.541 -1.911,0.678 -2.819,0.678 -1.814,0 -3.503,-1.699 -4.285,-3.698 0.164,2.238 -0.718,3.698 -2.282,3.698 -0.882,0 -1.338,-0.386 -2.186,-0.396 -0.53,-0.006 -0.91,0.11 -1.448,0.326 0.25,-0.553 0.357,-0.92 0.802,-1.332 0.916,-0.848 2.672,-0.854 3.318,-2.287 0.416,-0.92 0.35,-1.552 0.224,-2.577 -0.656,1.843 -1.854,2.693 -3.891,3.628 -1.113,0.512 -1.679,1.604 -1.931,2.539 -0.098,-1.251 -0.029,-2.087 0.627,-3.156 0.783,-1.274 2.665,-1.64 3.438,-2.953 0.6,-1.019 0.736,-1.76 0.734,-2.942 -0.407,1.391 -1.015,2.394 -1.739,2.895 -1.557,1.077 -3.212,1.526 -3.976,2.858 -0.618,1.08 -0.653,1.918 -0.443,3.135 -0.832,-0.786 -1.129,-1.646 -0.956,-2.778 0.147,-0.973 0.529,-1.581 1.342,-2.135 -1.152,0.117 -1.955,0.769 -2.307,1.872 -0.284,0.895 -0.174,1.61 0.367,2.378 -1.961,-0.515 -1.819,-3.238 -0.579,-4.576 2.124,-2.297 5.889,-2.126 4.313,-6.323 -0.185,1.575 -0.455,2.498 -1.64,3.332 -1.883,1.321 -4.787,1.186 -5.312,4.314 -0.151,-2.404 0.586,-3.184 1.98,-4.5 0.86,-0.812 2.49,-1.207 2.383,-3.531 -0.539,1.274 -1.304,1.785 -2.363,2.248 -1.228,0.534 -1.979,0.29 -2.992,1.574 -0.049,-0.938 0.272,-1.813 1.159,-2.338 0.811,-0.481 1.678,-0.376 2.295,-1.301 0,0 -0.702,-0.271 -1.717,0.123 0.967,-1.216 1.678,-0.904 2.635,-1.368 0.59,-0.284 0.828,-0.533 1.255,-0.977 -0.839,-0.097 -1.632,-0.108 -2.49,0.097 -1.012,0.243 -2.095,1.1 -2.095,1.1 0.618,-1.733 3.044,-3.195 5.434,-3.871 3.24,-0.914 4.555,-1.244 5.159,-2.365 0.414,-0.768 0.488,-1.021 0.488,-2.795 l 0,-10.269 c 0,-1.172 -1.859,-0.811 -2.407,-0.264 -0.495,0.495 -0.656,1.094 -0.272,1.887 -2.332,0.031 -2.955,-1.805 -2.955,-1.805 -0.016,0.203 -0.02,0.414 -0.018,0.635 -0.826,-0.402 -1.266,-0.803 -1.743,-1.589 -0.302,-0.497 -0.426,-0.82 -0.534,-1.392 -0.726,0.575 -2.65,0.76 -2.961,0.533 -0.788,-0.576 -1.245,-2.045 -1.448,-3.513 -0.187,-1.357 -0.105,-2.2 0.34,-3.495 -1.107,-1.979 -1.352,-4.262 -1.352,-6.582 0,-1.938 1.182,-4.409 2.799,-5.984 0.657,-3.239 4.154,-5.18 6.711,-5.18 2.428,0 4.431,1.393 5.62,3.986 1.104,-2.554 3.739,-3.986 6.433,-3.986 2.519,0 4.267,0.954 5.707,3.02 1.179,0.247 1.919,0.531 2.752,1.4 1.103,1.153 1.894,2.224 1.943,4.159 0.015,0.534 -0.231,0.818 -0.52,1.269 0.962,1.363 1.386,2.377 1.386,4.045 0,1.704 -0.154,2.584 -0.916,3.985 0.083,0.162 0.12,0.261 0.165,0.437 0.064,0.254 0.08,0.406 0.066,0.668 -0.548,0.181 -1.151,0.144 -1.302,0.699 -0.132,0.487 0.897,2.876 -0.783,5.898 m -10.213,-0.22 c 0.112,-1.009 0.563,-1.955 1.197,-2.678 0.331,0.091 0.583,0.222 0.908,0.46 0.238,0.174 0.39,0.311 0.545,0.505 -1.076,0.188 -2.148,0.859 -2.65,1.713 m 6.261,-1.379 c 0.16,1.255 -0.09,2.697 -0.701,3.717 0.139,-0.857 0.091,-1.853 -0.22,-2.645 0.35,-0.176 0.562,-0.389 0.771,-0.759 0.065,-0.114 0.113,-0.214 0.15,-0.313 m -2.106,-2.642 c 0.118,0.013 0.235,0.035 0.353,0.065 0.705,0.184 1.194,0.742 1.483,1.479 -0.426,0.197 -0.702,0.402 -1.064,0.775 -0.131,0.135 -0.219,0.235 -0.308,0.354 -0.182,-0.144 -0.39,-0.253 -0.626,-0.321 -0.135,-0.038 -0.273,-0.065 -0.414,-0.082 0.02,-0.572 0.09,-0.941 0.277,-1.522 0.099,-0.304 0.18,-0.51 0.299,-0.748 m -1.83,0.413 c 0.48,-0.272 0.999,-0.428 1.52,-0.431 -0.158,0.18 -0.274,0.367 -0.403,0.635 -0.09,0.186 -0.131,0.298 -0.187,0.496 -0.147,-0.23 -0.266,-0.35 -0.497,-0.496 -0.156,-0.098 -0.291,-0.165 -0.433,-0.204 m -14.905,-5.116 c 0.15,-0.109 0.301,-0.209 0.456,-0.302 0.104,0.145 0.165,0.252 0.252,0.431 0.189,0.388 0.276,0.666 0.312,1.044 -0.378,0.167 -0.717,0.395 -1.017,0.666 -0.095,-0.211 -0.137,-0.379 -0.168,-0.64 -0.055,-0.474 -0.013,-0.812 0.165,-1.199 m 0.675,-0.426 c 0.762,-0.41 1.6,-0.609 2.598,-0.464 l 0.082,0.013 c -0.21,0.359 -0.387,0.603 -0.688,0.961 -0.226,0.268 -0.362,0.41 -0.618,0.647 -0.271,-0.246 -0.426,-0.382 -0.707,-0.617 -0.262,-0.22 -0.431,-0.357 -0.667,-0.54 m 3.272,-0.318 c 0.733,0.209 1.409,0.585 1.995,1.113 -0.077,0.343 -0.147,0.699 -0.188,1.01 -0.063,0.486 -0.09,0.822 -0.094,1.229 -0.667,-0.807 -1.431,-1.406 -2.322,-1.641 l 0.609,-1.711 z m 2.403,1.521 c 0.728,0.813 1.272,1.898 1.546,3.229 -0.227,-0.199 -0.452,-0.315 -0.787,-0.424 -0.313,-0.102 -0.547,-0.139 -0.822,-0.12 l -0.211,-0.311 c 0.105,-0.318 0.164,-0.587 0.223,-0.983 0.079,-0.546 0.095,-0.908 0.051,-1.391 m 1.587,3.447 c 0.147,0.827 0.191,1.743 0.113,2.744 -0.373,-0.897 -0.785,-1.814 -1.253,-2.656 l 1.14,-0.088 z m -8.444,-1.837 c -0.075,0.095 -0.147,0.192 -0.216,0.293 l -0.697,-0.861 -0.692,-0.297 c 0.102,-0.255 0.333,-0.717 0.488,-0.893 -0.285,-0.124 -0.639,-0.867 -0.77,-1.251 0.368,0.06 0.586,0.066 0.958,0.028 0.25,-0.023 0.392,-0.05 0.633,-0.118 l -0.662,-2.337 c 0.597,0.178 0.927,0.329 1.452,0.662 0.438,0.277 0.828,0.359 1.035,0.834 0.053,0.125 0.08,0.215 0.099,0.329 -0.765,0.351 -1.381,0.916 -1.702,1.685 -0.045,0.333 -0.056,0.524 -0.049,0.858 0.007,0.424 0.036,0.681 0.123,1.068 m -0.737,1.227 c -0.522,1.156 -0.729,2.479 -0.672,3.56 -0.713,-0.374 -1.285,-0.838 -1.71,-1.392 0.198,-0.054 0.362,-0.108 0.597,-0.194 0.332,-0.121 0.516,-0.199 0.833,-0.355 -0.048,-0.49 -0.135,-0.775 -0.368,-1.21 -0.151,-0.282 -0.369,-0.366 -0.478,-0.669 -0.071,-0.196 -0.091,-0.319 -0.09,-0.528 0.278,-0.042 0.45,-0.03 0.72,0.051 0.234,0.07 0.347,0.165 0.555,0.293 0.256,0.155 0.409,0.265 0.613,0.444 m -2.678,1.733 c -0.385,-0.652 -0.595,-1.407 -0.623,-2.254 0.385,0.228 0.624,0.436 0.944,0.811 0.304,0.355 0.448,0.589 0.633,1.019 -0.146,0.104 -0.233,0.157 -0.396,0.231 -0.205,0.095 -0.379,0.157 -0.558,0.193 m -0.604,-3.02 c 0.046,-0.548 0.153,-0.935 0.403,-1.495 0,-0.603 0.146,-1.252 0.371,-1.873 l 0.947,1.612 -0.401,0.92 c -0.326,0.179 -0.508,0.287 -0.82,0.491 -0.202,0.132 -0.333,0.223 -0.5,0.345 m 0.902,-3.694 c 0.384,-0.922 0.926,-1.746 1.403,-2.216 0.068,0.363 0.124,0.631 0.235,1.048 0.133,0.499 0.229,0.775 0.431,1.251 -0.306,-0.061 -0.485,-0.073 -0.796,-0.061 -0.278,0.013 -0.429,0.122 -0.708,0.104 -0.228,-0.013 -0.387,-0.047 -0.565,-0.126 m 2.076,-2.78 c 0.764,-0.544 1.676,-0.911 2.636,-1.069 -0.1,0.642 -0.161,1.059 -0.26,1.75 l -0.119,0.856 -0.439,-0.044 c -0.253,-0.162 -0.393,-0.259 -0.633,-0.44 -0.502,-0.378 -0.796,-0.637 -1.185,-1.053 m 3.374,-1.148 c 0.741,-0.037 1.492,0.051 2.213,0.279 -0.139,-0.186 -0.315,-0.369 -0.52,-0.537 l 0.011,-0.719 c 0.06,-0.245 0.088,-0.384 0.134,-0.633 0.038,-0.211 0.062,-0.349 0.086,-0.53 l 0.093,0.013 c 0.223,0.035 0.439,0.079 0.647,0.129 0.146,0.332 0.408,0.908 0.558,1.082 0.121,0.142 0.194,0.219 0.327,0.35 0,0 -0.306,0.547 -0.356,0.794 -0.106,0.505 -0.052,0.981 0.147,1.355 l -0.972,-0.692 c -0.085,0.276 -0.173,0.552 -0.145,0.692 0.115,0.558 0.171,0.887 0.128,1.453 -0.021,0.273 -0.047,0.453 -0.102,0.681 -0.958,-0.154 -1.938,-0.06 -2.766,0.272 -0.045,-0.3 -0.042,-0.524 0.001,-0.865 0.051,-0.395 0.227,-0.587 0.283,-0.982 0.042,-0.296 -0.017,-0.471 0.029,-0.766 0.035,-0.217 0.121,-0.945 0.204,-1.376 m 1.171,-0.609 c -0.226,-0.122 -0.466,-0.215 -0.714,-0.265 -0.181,-0.037 -0.358,-0.065 -0.531,-0.085 0.043,-0.196 0.053,-0.374 0.044,-0.62 -0.011,-0.229 -0.031,-0.393 -0.082,-0.573 0.278,-0.039 0.565,-0.062 0.855,-0.065 l 0.506,0.505 c 0.082,0.324 0.082,0.532 0,0.854 -0.024,0.096 -0.048,0.174 -0.078,0.249 m -1.754,-0.385 c -1.202,-0.026 -2.173,0.352 -3.027,0.837 0.66,-0.966 1.721,-1.609 2.958,-1.896 0.067,0.171 0.096,0.318 0.108,0.533 0.012,0.208 0.004,0.357 -0.039,0.526 m 4.914,-0.361 c 0.937,0.537 1.639,1.323 2.112,2.385 -0.055,0.153 -0.141,0.295 -0.267,0.45 -0.089,0.11 -0.148,0.168 -0.261,0.253 l -0.96,-0.84 c 0.053,-0.304 0,-0.522 -0.188,-0.767 -0.146,-0.193 -0.279,-0.284 -0.513,-0.351 -0.028,-0.269 -0.028,-0.424 0,-0.691 0.021,-0.176 0.041,-0.304 0.077,-0.439 m 2.847,6.125 c 0.007,0.185 0.01,0.374 0.01,0.566 0,0.94 0.02,1.759 0.04,2.555 l -0.982,-0.364 c -0.118,-0.329 -0.243,-0.629 -0.372,-0.903 0.043,-0.259 0.092,-0.454 0.184,-0.745 0.137,-0.434 0.24,-0.674 0.461,-1.072 l 0.659,-0.037 z m 0.068,3.81 c 0.028,1.077 0.05,2.165 0.024,3.518 -0.194,-1.417 -0.432,-2.592 -0.705,-3.565 l 0.681,0.047 z m -1.767,-2.694 c -0.413,-0.674 -0.867,-1.138 -1.35,-1.464 0.366,-0.386 0.608,-0.61 1.034,-0.97 0.331,-0.278 0.525,-0.429 0.879,-0.678 -0.063,0.64 -0.114,0.999 -0.231,1.631 -0.108,0.591 -0.188,0.949 -0.332,1.481 m -1.671,-1.659 c -0.254,-0.138 -0.515,-0.243 -0.782,-0.327 -0.09,-0.306 -0.136,-0.534 -0.184,-0.894 -0.051,-0.363 -0.063,-0.572 -0.061,-0.938 0.209,0.104 0.325,0.175 0.514,0.313 0.144,0.104 0.221,0.169 0.351,0.291 0.294,-0.127 0.491,-0.16 0.811,-0.134 0.249,0.021 0.394,0.06 0.618,0.171 -0.357,0.276 -0.542,0.461 -0.819,0.818 -0.203,0.26 -0.314,0.433 -0.448,0.7 m -9.724,-2.112 c 0.018,-1.903 0.399,-3.186 1.424,-4.628 l 0.286,0.093 c 0.057,0.293 0.114,0.458 0.253,0.723 0.127,0.24 0.225,0.379 0.4,0.563 -1.051,0.91 -1.859,2.073 -2.363,3.249 m 1.817,-5.152 c 0.485,-0.611 0.982,-1.137 1.511,-1.575 0.086,0.274 0.149,0.508 0.199,0.741 l 0.922,0.893 0.288,0.44 c -0.716,0.252 -1.374,0.621 -1.965,1.071 -0.172,-0.259 -0.457,-0.685 -0.492,-0.841 -0.035,-0.154 -0.251,-0.54 -0.453,-0.725 l -0.01,-0.004 z m 2.154,-2.057 c 1.102,-0.734 2.34,-1.117 3.812,-1.117 0.503,0 0.967,0.054 1.393,0.155 l 0.007,0.286 c -0.072,0.473 -0.151,0.74 -0.351,1.177 -0.143,0.313 -0.243,0.485 -0.446,0.766 -0.167,-0.145 -1.782,-1.352 -2.001,-1.354 -0.151,0.458 -0.786,2.051 -1.094,2.476 l -0.115,0.03 c -0.119,-0.444 -0.267,-0.712 -0.584,-1.068 -0.264,-0.296 -0.453,-0.439 -0.806,-0.618 l 0.119,-0.351 0.066,-0.382 z m 6.148,-0.639 c 0.941,0.433 1.634,1.125 2.096,1.929 -0.057,0.087 -0.114,0.167 -0.196,0.271 -0.116,0.148 -0.188,0.23 -0.32,0.365 -0.149,-0.099 -0.228,-0.168 -0.343,-0.306 -0.267,-0.32 -0.768,-1.442 -0.967,-1.765 -0.118,-0.187 -0.199,-0.336 -0.27,-0.494 m 2.43,2.624 c 0.419,1.068 0.487,2.244 0.241,3.239 -1.111,-1.561 -2.38,-2.469 -4.025,-2.841 l 0.669,-2.456 c 0.558,0.436 0.839,0.745 1.222,1.34 0.255,0.397 0.68,1.305 0.996,2.101 0.054,-0.173 0.131,-0.344 0.238,-0.545 0.2,-0.372 0.37,-0.593 0.659,-0.838 m -4.481,0.275 c -0.333,-0.044 -0.68,-0.068 -1.043,-0.074 -0.449,-0.008 -0.884,0.029 -1.303,0.106 l 0.686,-1.18 0.356,-0.454 c 0.328,0.262 0.498,0.432 0.761,0.76 0.247,0.311 0.389,0.526 0.543,0.842 m 2.466,15.237 c -0.226,-0.26 -0.492,-0.474 -0.779,-0.646 -0.193,-0.658 -0.485,-1.4 -0.591,-1.605 -0.166,-0.324 -0.348,-0.501 -0.579,-0.715 -0.29,0.155 -0.484,0.252 -0.733,0.503 -0.168,0.166 -0.575,0.508 -0.686,0.717 -0.133,-0.259 -0.22,-0.399 -0.396,-0.632 -0.354,-0.475 -0.608,-0.715 -1.101,-1.043 -0.149,0.134 -0.218,0.245 -0.269,0.44 -0.037,0.146 -0.041,0.237 -0.014,0.385 -0.368,-0.028 -0.58,-0.087 -0.91,-0.252 -0.309,-0.156 -0.508,-0.299 -0.704,-0.522 0.169,-0.21 0.362,-0.398 0.584,-0.559 3.419,-2.471 6.26,0.791 6.178,3.929 m -4,-1.058 c -0.061,0.021 -0.119,0.045 -0.176,0.069 -0.527,0.235 -0.97,0.55 -1.32,0.923 l -2.056,0.263 c -0.141,-0.888 -0.058,-1.865 0.286,-2.696 0.728,0.073 1.181,0.205 1.872,0.53 0.595,0.28 0.939,0.502 1.394,0.911 m -2.007,1.683 c -0.3,0.53 -0.459,1.131 -0.467,1.764 -0.417,-0.351 -0.729,-0.888 -0.921,-1.512 l 1.388,-0.252 z m -5.664,-9.694 c -0.372,-0.69 -0.652,-1.364 -0.815,-2.03 0.154,-0.063 0.289,-0.1 0.485,-0.137 0.276,-0.051 0.473,-0.064 0.708,-0.039 -0.159,0.661 -0.274,1.371 -0.378,2.206 m -0.917,-2.54 c -0.18,-1.155 0.01,-2.3 0.688,-3.488 0.058,-0.103 0.119,-0.206 0.188,-0.308 0.099,0.249 0.205,0.428 0.389,0.679 0.167,0.228 0.719,0.557 1.053,0.785 -0.361,0.685 -0.624,1.31 -0.824,1.956 l -1.494,0.376 z m 1.291,-4.367 c 0.519,-0.644 1.17,-1.243 1.853,-1.743 0.02,0.108 0.049,0.218 0.092,0.352 0.065,0.207 0.356,0.735 0.54,1.059 -0.365,0.517 -0.696,1.044 -1.021,1.591 -0.278,-0.268 -0.471,-0.448 -0.785,-0.736 -0.114,-0.107 -0.48,-0.369 -0.679,-0.523 m 2.713,-2.311 c 0.863,-0.508 1.714,-0.826 2.357,-0.847 -0.801,0.68 -1.442,1.353 -1.994,2.039 -0.014,-0.164 -0.035,-0.306 -0.074,-0.505 -0.027,-0.129 -0.169,-0.43 -0.289,-0.687 m 13.978,19.67 c -0.232,-0.436 -0.454,-0.71 -0.403,-1.202 0.031,-0.296 0.093,-0.634 0.187,-0.992 0.082,0.082 0.162,0.144 0.281,0.221 0.191,0.124 0.337,0.191 0.524,0.237 -0.297,0.649 -0.457,1.296 -0.589,1.736 m -0.108,-2.578 c 0.211,-0.68 0.528,-1.415 0.958,-2.1 0.856,-1.366 1.903,-2.493 3.303,-3.007 0.123,0.483 0.577,1.678 0.577,1.678 -0.02,0.214 -0.034,0.867 -0.027,1.257 -1.38,-0.093 -2.374,0.736 -3.368,1.843 -0.17,0.19 -0.318,0.396 -0.447,0.606 -0.263,0.043 -0.48,0.003 -0.751,-0.126 -0.103,-0.05 -0.167,-0.088 -0.245,-0.151 m 4.853,-5.282 c 0.429,-0.097 0.889,-0.141 1.383,-0.12 0.883,0.035 1.821,0.433 2.564,1.019 0.04,0.258 0.091,0.444 -0.018,0.801 -0.125,0.413 -0.198,0.719 -0.444,1.15 -0.175,-0.566 -0.446,-1.434 -0.584,-1.44 -0.204,-0.01 -1.237,0.372 -1.626,0.435 0.031,0.187 0.069,0.381 0.118,0.613 0.23,-0.07 0.984,-0.314 1.235,-0.4 0.13,0.35 0.476,1.468 0.496,1.909 0.268,-0.146 0.278,-0.152 0.583,-0.174 0.175,-0.014 0.494,0.021 0.668,0.051 -0.103,0.227 -0.126,0.501 -0.238,0.724 -0.2,0.396 -0.378,0.619 -0.716,0.907 -0.115,0.098 -0.199,0.155 -0.315,0.212 l -0.043,-0.18 c -0.357,-1.384 -1.264,-2.035 -2.56,-2.314 0.045,-0.629 0.026,-1.017 -0.079,-1.659 -0.099,-0.621 -0.201,-0.993 -0.424,-1.534 m 6.075,5.363 c -0.016,0.205 -0.044,0.414 -0.087,0.628 -0.207,1.028 -0.761,2.091 -1.434,3.061 -0.087,-0.413 -0.26,-1.069 -0.59,-1.673 -0.216,-0.397 -0.499,-0.593 -0.729,-0.721 -0.01,-0.194 -0.028,-0.384 -0.056,-0.568 0.498,-0.391 0.896,-0.566 1.551,-0.697 0.519,-0.106 0.856,-0.115 1.345,-0.03 m -2.215,4.607 c -0.748,0.919 -1.547,1.692 -2.147,2.181 0.708,-1.074 1.008,-1.782 1.285,-3.039 0.123,-0.556 0.201,-1.086 0.231,-1.586 0.281,0.211 0.441,0.448 0.563,0.821 0.127,0.376 0.013,0.62 0.031,1.017 0.012,0.239 0.022,0.419 0.037,0.606 m -10.59,-5.33 c -0.081,-0.695 -0.152,-1.362 -0.204,-2.019 l 0.902,-0.094 c -0.282,0.876 -0.504,1.634 -0.698,2.113 m -0.225,-2.309 c -0.046,-0.663 -0.068,-1.317 -0.06,-1.982 0.32,0.105 0.512,0.223 0.771,0.463 0.183,0.171 0.275,0.285 0.4,0.503 -0.129,0.209 -0.218,0.319 -0.391,0.494 -0.247,0.249 -0.433,0.386 -0.72,0.522 m 0.052,-3.791 c 0.02,-0.175 0.042,-0.352 0.067,-0.529 0.194,-1.417 1.63,-3.766 3.143,-4.917 0.212,0.043 0.384,0.097 0.63,0.189 0.368,0.141 0.569,0.244 0.895,0.464 0.016,-0.324 0.014,-0.509 -0.011,-0.833 -0.02,-0.277 -0.04,-0.458 -0.084,-0.692 0.393,-0.199 0.788,-0.366 1.188,-0.5 0.184,0.086 0.339,0.181 0.544,0.326 0.304,0.216 0.462,0.363 0.7,0.648 l 0.511,-1.331 0.188,-0.011 c 0.047,0.59 0.031,0.965 -0.062,1.58 -0.065,0.437 -0.122,0.682 -0.256,1.103 l -1.729,-1.256 -0.331,1.738 c -0.441,-0.107 -0.693,-0.156 -1.144,-0.227 -0.459,-0.071 -0.721,-0.101 -1.184,-0.133 0.005,0.313 0.015,0.49 0.041,0.803 0.025,0.31 0.047,0.484 0.095,0.792 -0.404,0.232 -0.649,0.341 -1.093,0.483 -0.384,0.124 -0.609,0.175 -1.01,0.227 -0.082,0.185 0.156,0.279 0.434,0.463 0.195,0.131 0.234,0.3 0.361,0.505 -0.012,0.118 0.021,0.24 -0.084,0.29 -0.39,0.185 -0.577,0.264 -0.946,0.431 l -0.863,0.387 z m 8.046,-7.195 c 0.804,-0.011 1.656,0.109 2.579,0.372 l 0.266,0.081 0.362,0.32 c -0.398,0.246 -0.611,0.41 -0.948,0.733 -0.348,0.333 -0.525,0.546 -0.792,0.946 -0.343,-0.504 -0.526,-0.794 -0.835,-1.317 -0.263,-0.443 -0.422,-0.728 -0.632,-1.135 m 3.75,0.828 c 0.938,0.481 1.645,1.168 2.194,2.027 -0.096,0.191 -0.207,0.375 -0.327,0.547 -0.267,0.376 -0.46,0.568 -0.836,0.833 0.017,-0.339 -0.147,-0.644 -0.243,-0.969 -0.118,-0.398 -0.202,-0.45 -0.365,-0.833 -0.256,-0.602 -0.363,-1 -0.423,-1.605 m 2.569,2.692 c 0.178,0.349 0.335,0.719 0.477,1.11 0.608,1.674 0.726,2.8 -0.312,4.555 -0.172,-1.063 -0.476,-1.883 -0.997,-2.603 0.009,-0.351 0.05,-0.678 0.13,-1.112 0.109,-0.597 0.437,-1.349 0.702,-1.95 m -2,1.865 -0.241,-0.186 c -0.371,-0.28 -0.743,-0.512 -1.12,-0.696 -0.021,-0.29 -0.073,-0.521 -0.184,-0.845 -0.115,-0.339 -0.207,-0.524 -0.403,-0.823 -0.098,0.355 -0.159,0.555 -0.276,0.905 l -0.133,0.381 c -1.317,-0.365 -2.687,-0.211 -4.175,0.368 -1.194,0.465 -2.107,1.208 -2.788,2.046 -0.235,-0.138 -0.375,-0.249 -0.576,-0.458 -0.262,-0.271 -0.388,-0.458 -0.544,-0.803 0.403,-0.15 0.644,-0.211 1.068,-0.269 0.321,-0.044 0.504,-0.052 0.827,-0.041 -0.024,-0.269 -0.036,-0.42 -0.053,-0.689 -0.017,-0.276 -0.023,-0.434 -0.033,-0.71 0.395,-0.016 0.621,-0.003 1.011,0.062 0.345,0.058 0.538,0.107 0.866,0.226 0.103,-0.228 0.318,-1.535 0.337,-1.707 0.185,0.148 1.563,1.265 1.823,1.338 -0.002,-0.278 0.01,-0.436 0.052,-0.71 0.075,-0.494 0.16,-0.773 0.372,-1.225 0.201,0.212 0.307,0.343 0.472,0.586 0.199,0.295 0.508,1.046 0.535,1.205 0.289,-0.303 0.45,-0.476 0.732,-0.784 0.276,-0.302 0.432,-0.474 0.7,-0.782 0.309,0.225 0.83,0.881 1.007,1.218 0.226,0.432 0.657,2.133 0.724,2.393 m -9.406,1.257 c -0.341,0.438 -0.623,0.898 -0.85,1.356 -0.247,0.502 -0.468,1.021 -0.664,1.536 l -1.106,-0.884 0.308,-0.576 0.691,-0.297 -0.371,-0.577 c 0.324,-0.207 0.522,-0.304 0.884,-0.434 0.309,-0.11 0.491,-0.249 0.815,-0.205 0.119,0.018 0.199,0.038 0.293,0.081 m 6.546,1.126 c -0.996,-0.269 -1.973,-0.229 -2.888,0.056 -0.259,-0.335 -0.913,-0.634 -0.913,-0.634 -0.251,-0.132 -1.037,-0.445 -1.474,-0.585 0.701,-0.691 1.486,-1.21 2.325,-1.521 0.214,0.106 0.374,0.22 0.588,0.407 0.288,0.252 0.43,0.429 0.618,0.762 0.143,-0.305 0.218,-0.479 0.342,-0.792 0.11,-0.281 0.179,-0.472 0.257,-0.713 0.2,-10e-4 0.402,0.008 0.604,0.031 0.263,0.547 0.583,1.337 0.583,1.337 l 0.603,1.898 c -0.206,-0.101 -0.42,-0.185 -0.645,-0.246 m -3.866,0.458 c -1.078,0.561 -2.046,1.457 -2.834,2.561 l -0.785,-0.694 c 0.447,-1.16 1.046,-2.172 1.752,-2.994 l 1.867,1.127 z m -3.021,2.832 c -0.629,0.939 -1.129,2.015 -1.464,3.15 0.075,-1.296 0.312,-2.507 0.679,-3.601 l 0.785,0.451 z m 7.016,-6.164 c 0.202,0.048 0.402,0.108 0.604,0.181 0.954,0.343 1.747,0.995 2.297,1.798 -0.105,0.175 -0.215,0.314 -0.385,0.499 -0.425,0.463 -0.784,0.729 -1.358,1.04 -0.09,-0.067 -0.181,-0.131 -0.275,-0.19 -0.009,-0.44 -0.017,-0.863 -0.116,-1.304 -0.189,-0.834 -0.378,-1.344 -0.767,-2.024 m 3.293,2.657 c 0.563,1.185 0.636,2.566 0.014,3.742 -0.343,-0.804 -0.971,-1.875 -1.857,-2.646 l 1.843,-1.096 z m -28.016,6.205 c 0.552,0.421 0.887,0.633 1.503,0.954 0.557,0.29 0.887,0.431 1.481,0.633 -0.574,0.207 -0.931,0.271 -1.541,0.275 -0.288,0.002 -0.452,-0.01 -0.736,-0.053 0,10e-4 -0.693,-0.796 -0.707,-1.809 m 15.089,-10.781 c -0.153,-0.53 -0.248,-1.119 -0.269,-1.721 l 0.669,0.182 c -0.012,-0.226 -0.021,-0.353 -0.041,-0.576 -0.037,-0.403 -0.067,-0.631 -0.134,-1.031 0.508,0.13 0.796,0.198 1.308,0.308 0.314,0.067 0.512,0.107 0.793,0.158 -0.889,0.667 -1.655,1.555 -2.326,2.68 m -0.076,-3.591 c 0.219,-0.838 0.629,-1.603 1.279,-2.149 0.712,-0.601 1.565,-1.123 2.513,-1.509 0.004,0.415 0.047,0.698 0.165,1.138 0.075,0.278 0.156,0.424 0.247,0.699 0.124,0.386 0.188,0.606 0.289,1 -0.625,-0.222 -0.988,-0.323 -1.638,-0.454 -0.442,-0.089 -0.695,-0.128 -1.144,-0.174 -0.023,0.188 -0.023,0.297 0,0.483 0.05,0.392 0.364,0.543 0.382,0.937 0.01,0.222 -0.009,0.355 -0.082,0.565 l -2.011,-0.536 z m 4.361,-3.87 c 1.317,-0.442 2.783,-0.616 4.283,-0.378 -0.324,0.145 -0.557,0.318 -0.848,0.614 -0.289,0.296 -0.402,0.513 -0.597,0.877 -0.159,0.296 -0.235,0.474 -0.342,0.792 l -0.628,-0.464 c -0.484,-0.357 -0.776,-0.537 -1.245,-0.915 -0.253,-0.204 -0.413,-0.339 -0.623,-0.526 m 4.83,-0.273 c 0.392,0.089 0.782,0.206 1.173,0.354 0.533,0.202 1.033,0.479 1.483,0.811 -0.386,0.357 -0.656,0.58 -1.116,0.921 -0.205,0.153 -0.322,0.236 -0.536,0.38 -0.429,-0.548 -0.62,-0.918 -0.822,-1.584 -0.103,-0.342 -0.151,-0.568 -0.182,-0.882 m 3.063,1.49 c 1.413,1.235 2.192,3.047 1.652,4.745 -0.69,-0.735 -1.381,-1.31 -2.114,-1.738 -0.213,-0.365 -0.291,-0.667 -0.306,-1.127 -0.024,-0.793 0.214,-1.384 0.768,-1.88 m -1.812,2.394 c -0.653,-0.218 -1.352,-0.344 -2.114,-0.386 0.006,-0.265 0.005,-0.438 -0.002,-0.724 -0.012,-0.454 -0.027,-0.711 -0.071,-1.164 0.352,0.081 0.55,0.163 0.856,0.355 0.398,0.252 0.59,0.467 0.856,0.857 0.258,0.379 0.377,0.642 0.475,1.062 m -3.626,-0.371 c -0.667,0.049 -1.291,0.151 -1.875,0.311 0.004,-0.201 10e-4,-0.374 -0.011,-0.621 -0.032,-0.626 -0.079,-0.98 -0.216,-1.592 0.421,0.252 0.649,0.417 1.021,0.738 0.478,0.412 0.755,0.708 1.081,1.164 m -2.51,0.513 c -0.616,0.225 -1.185,0.519 -1.712,0.889 -0.207,-0.73 -0.302,-1.492 -0.134,-1.569 0.425,-0.059 0.695,-0.022 1.092,0.143 0.338,0.142 0.54,0.283 0.754,0.537 m -2.873,-6.074 c 0.464,-0.338 1,-0.553 1.591,-0.676 0.226,0.168 0.469,0.476 0.6,0.606 0.309,0.307 0.506,0.562 0.499,0.995 -0.003,0.161 -0.025,0.294 -0.071,0.416 l -0.404,0.18 c -0.188,-0.257 -0.378,-0.424 -0.688,-0.619 -0.225,-0.139 -1.152,-0.681 -1.527,-0.902 m 2.371,-0.782 c 0.271,-0.021 0.55,-0.026 0.836,-0.02 1.446,0.034 2.377,0.413 3.435,1.4 -0.94,-0.011 -1.691,0.047 -2.422,0.211 l -1.033,-0.262 -0.816,-1.329 z m -1.198,2.138 c 0.201,0.132 0.301,0.263 0.373,0.49 -1.234,0.636 -1.986,1.252 -2.969,2.392 -0.047,-0.86 -0.195,-1.803 0.235,-2.763 0.195,-0.082 0.386,-0.115 0.643,-0.119 0.313,-0.005 0.937,-0.08 1.093,-0.144 0.232,-0.093 0.416,0.008 0.625,0.144 m -15.602,1.404 c 0.371,-0.665 0.854,-1.309 1.434,-1.86 0.31,0.162 0.529,0.313 0.835,0.573 0.234,0.197 0.376,0.337 0.547,0.542 -0.932,0.203 -1.777,0.554 -2.752,1.115 -0.004,-0.063 -0.012,-0.128 -0.027,-0.206 l -0.037,-0.164 z m 1.883,-2.251 c 0.888,-0.708 1.963,-1.19 3.188,-1.242 -0.102,0.526 -0.337,1.323 -0.442,1.573 0.062,0.064 0.366,0.601 0.449,0.945 -0.492,0.008 -0.942,0.033 -1.364,0.082 -0.469,-0.352 -1.404,-1.044 -1.831,-1.358 m 3.907,-1.23 c 1.25,0.078 2.138,0.363 2.803,0.833 l 0.076,0.638 c 0,0 -0.33,0.841 -0.577,1.357 -0.376,-0.105 -0.758,-0.182 -1.16,-0.233 -0.093,-0.233 -0.195,-0.468 -0.333,-0.612 -0.315,-0.333 -0.536,-0.493 -0.949,-0.69 l 0.072,-0.666 0.068,-0.627 z m 3.667,1.697 c 0.422,0.583 0.721,1.304 0.997,2.142 -0.653,-0.36 -1.237,-0.635 -1.813,-0.838 l 0.816,-1.304 z m -4.1,24.302 c -0.722,-0.588 -0.921,-1.497 -0.509,-2.332 l 0.612,0.167 0.606,0.466 c -0.449,0.445 -0.653,0.985 -0.709,1.699 m -0.061,-2.874 c 0.798,-0.623 2.174,-0.588 2.796,0.233 -0.646,0.027 -1.298,0.388 -1.663,0.643 l -0.386,-0.784 -0.747,-0.092 z m 13.848,0.201 c 0.007,0.21 0.053,0.381 0.122,0.528 -0.093,0.264 -0.137,0.49 -0.172,0.823 -0.065,0.618 -0.031,0.992 0.149,1.587 l 0.353,-0.754 0.032,-1.174 c 0.327,0.324 0.729,0.606 0.9,1.207 0.148,0.528 0.084,1.197 -0.184,1.886 -1.02,-0.065 -1.72,-0.408 -2.019,-1.268 -0.247,-0.717 -0.081,-2.266 0.819,-2.835"
       id="path3399" />
  </g>
</svg>
